<?xml version="1.0" encoding="UTF-8"?>
<svg width="13px" height="17px" viewBox="0 0 13 17" version="1.1" xmlns="http://www.w3.org/2000/svg" xmlns:xlink="http://www.w3.org/1999/xlink">
    <!-- Generator: Sketch 49.3 (51167) - http://www.bohemiancoding.com/sketch -->
    <title>location-icn</title>
    <desc>Created with Sketch.</desc>
    <defs></defs>
    <g id="Page-1" stroke="none" stroke-width="1" fill="none" fill-rule="evenodd">
        <g id="Desktop" transform="translate(-227.000000, -201.000000)">
            <g id="cards" transform="translate(87.000000, 62.000000)">
                <g id="card_1">
                    <g id="location-icn" transform="translate(137.000000, 137.000000)">
                        <rect id="base" x="0" y="0" width="20" height="20"></rect>
                        <g id="Group" transform="translate(4.000000, 3.000000)" fill="#636F89" fill-rule="nonzero" stroke="#636F89" stroke-width="0.4">
                            <path d="M5.8,0.0961538462 C2.84,0.0961538462 0.38,2.38461538 0.18,5.28846154 C0.1,6.57692308 0.52,7.90384615 1.38,9 L5.58,14.7692308 C5.64,14.8461538 5.72,14.8846154 5.82,14.8846154 C5.92,14.8846154 6.02,14.8461538 6.06,14.7692308 L10.24,9 C11.1,7.88461538 11.52,6.57692308 11.44,5.26923077 C11.22,2.38461538 8.76,0.0961538462 5.8,0.0961538462 Z M9.74,8.67307692 L5.8,14.1153846 L1.84,8.67307692 C1.06,7.67307692 0.68,6.48076923 0.76,5.32692308 C0.94,3.03846154 2.86,0.673076923 5.8,0.673076923 C8.74,0.673076923 10.66,3.03846154 10.82,5.32692308 C10.9,6.48076923 10.52,7.67307692 9.74,8.67307692 Z" id="Shape"></path>
                            <path d="M5.8,3.42307692 C4.56,3.42307692 3.54,4.40384615 3.54,5.61538462 C3.54,6.82692308 4.56,7.80769231 5.8,7.80769231 C7.04,7.80769231 8.06,6.82692308 8.06,5.61538462 C8.06,4.40384615 7.04,3.42307692 5.8,3.42307692 Z M5.8,7.23076923 C4.88,7.23076923 4.14,6.5 4.14,5.61538462 C4.14,4.73076923 4.88,4 5.8,4 C6.72,4 7.46,4.73076923 7.46,5.61538462 C7.46,6.5 6.72,7.23076923 5.8,7.23076923 Z" id="Shape"></path>
                        </g>
                    </g>
                </g>
            </g>
        </g>
    </g>
</svg>