<?xml version="1.0" encoding="UTF-8"?>
<svg width="14px" height="14px" viewBox="0 0 14 14" version="1.1" xmlns="http://www.w3.org/2000/svg" xmlns:xlink="http://www.w3.org/1999/xlink">
    <!-- Generator: Sketch 49.3 (51167) - http://www.bohemiancoding.com/sketch -->
    <title>skills-icn</title>
    <desc>Created with Sketch.</desc>
    <defs></defs>
    <g id="Page-1" stroke="none" stroke-width="1" fill="none" fill-rule="evenodd">
        <g id="Desktop" transform="translate(-227.000000, -229.000000)">
            <g id="cards" transform="translate(87.000000, 62.000000)">
                <g id="card_1">
                    <g id="skills-icn" transform="translate(137.000000, 165.000000)">
                        <rect id="base" x="0" y="0" width="20" height="20"></rect>
                        <g id="Group" transform="translate(3.000000, 2.000000)" fill="#636F89" fill-rule="nonzero">
                            <path d="M10.4385026,0.00780904981 C9.38565459,-0.059654626 8.30706349,0.310116843 7.50414354,1.11274099 C6.51669205,2.09978551 6.22414438,3.49211312 6.55245951,4.75455702 L0.554867479,10.7548793 C-0.184971688,11.4943969 -0.184939965,12.7058383 0.554867479,13.4453559 C1.29465901,14.1848893 2.50654932,14.1848734 3.2463409,13.4453559 L9.24889759,7.44503834 C10.5114334,7.77259765 11.9050477,7.48038031 12.892071,6.49370998 C13.962652,5.42355397 14.255057,3.86945084 13.7793101,2.52982859 C13.7246817,2.37653599 13.5954585,2.26179249 13.4367372,2.22564154 C13.2780159,2.1894906 13.1118217,2.23694874 12.9961535,2.35145392 L11.6578478,3.68926389 C11.2792203,4.06774956 10.6882562,4.06774956 10.3096288,3.68926389 C9.93100126,3.31077347 9.93100126,2.72497998 10.3096288,2.34649907 L11.6479344,1.0086891 C11.764884,0.893185049 11.8139117,0.725520803 11.7776074,0.565235986 C11.741303,0.404951169 11.624809,0.274749687 11.4694937,0.220867675 C11.1344533,0.101975016 10.789452,0.0302969417 10.4385026,0.00780904981 Z M10.2847884,1.08128518 L9.58630166,1.77977592 C8.86234345,2.5037507 8.86234345,3.6896995 9.58630166,4.41366808 C10.3102599,5.13764442 11.4962127,5.13764132 12.2201709,4.41366808 L12.9186577,3.72002797 C12.9610791,4.48256566 12.6984946,5.2547363 12.1134732,5.83975334 C11.3235158,6.62972774 10.1878229,6.8441644 9.20311184,6.49458841 C9.03436624,6.43377971 8.84569625,6.47528734 8.71805162,6.60130227 L2.67418566,12.6451766 C2.30364621,13.0157181 1.72534577,13.0157026 1.35482184,12.6451766 C0.984297916,12.2746505 0.984282394,11.6963312 1.35482184,11.3258052 L7.3986878,5.28678151 C7.52640233,5.16019155 7.56982487,4.97138367 7.51024389,4.80171849 C7.16067456,3.81699246 7.3702361,2.68131171 8.16022459,1.89134041 C8.7452926,1.30626749 9.5221961,1.03881694 10.2847884,1.08128518 Z" id="Shape"></path>
                        </g>
                    </g>
                </g>
            </g>
        </g>
    </g>
</svg>