<?xml version="1.0" encoding="UTF-8"?>
<svg width="16px" height="16px" viewBox="0 0 16 16" version="1.1" xmlns="http://www.w3.org/2000/svg" xmlns:xlink="http://www.w3.org/1999/xlink">
    <!-- Generator: Sketch 49.3 (51167) - http://www.bohemiancoding.com/sketch -->
    <title>Group 6</title>
    <desc>Created with Sketch.</desc>
    <defs></defs>
    <g id="Page-1" stroke="none" stroke-width="1" fill="none" fill-rule="evenodd">
        <g id="Desktop" transform="translate(-832.000000, -297.000000)">
            <g id="cards" transform="translate(87.000000, 62.000000)">
                <g id="card_2" transform="translate(0.000000, 208.000000)">
                    <g id="Group-11" transform="translate(732.000000, 20.000000)">
                        <g id="Group-6" transform="translate(11.000000, 5.000000)">
                            <g id="star">
                                <rect id="base" x="0" y="0" width="20" height="20"></rect>
                                <g id="Group" transform="translate(3.000000, 3.000000)" fill="#526173" fill-rule="nonzero" stroke="#526173" stroke-width="0.5">
                                    <path d="M11.1748721,13.9970362 C11.2478346,13.9962264 11.3167682,13.9617699 11.3633751,13.902813 C11.4099821,13.8438561 11.4295483,13.7663618 11.4168802,13.6909003 L10.6743103,8.96012838 L13.9251126,5.59255299 C13.9927083,5.52325414 14.0170238,5.41968977 13.9878515,5.32533562 C13.9586792,5.23098147 13.8810688,5.16216988 13.7876006,5.14778754 L9.26619917,4.41998246 L7.22001424,0.139756565 C7.17712742,0.0538336352 7.09237887,0 7,0 C6.90762113,0 6.82287258,0.0538336352 6.77998576,0.139756565 L4.73380083,4.41998246 L0.212399441,5.14778754 C0.118931244,5.16216988 0.0413207834,5.23098147 0.0121484861,5.32533562 C-0.0170238112,5.41968977 0.00729166435,5.52325414 0.0748874154,5.59255299 L3.32566469,8.96012838 L2.58309476,13.6909003 C2.56535025,13.7899331 2.60350966,13.8908418 2.6811169,13.95011 C2.75872413,14.0093783 2.86189772,14.0164047 2.9461445,13.9681594 L7,11.7674025 L11.0538555,13.9681594 C11.0912182,13.9883821 11.1328564,13.9983177 11.1748721,13.9970362 Z M10.8448382,13.2634506 L7.11549311,11.2359806 C7.04318014,11.1961014 6.95681986,11.1961014 6.88450689,11.2359806 L3.15516178,13.2634506 L3.83719843,8.91390989 C3.85105673,8.82923404 3.8243222,8.74282192 3.76571817,8.6828693 L0.778942986,5.58099189 L4.93182114,4.92250158 C5.01100541,4.90803469 5.07863081,4.85422865 5.11332102,4.77809149 L7,0.832904259 L8.88667898,4.77809149 C8.92136919,4.85422865 8.98899459,4.90803469 9.06817886,4.92250158 L13.221032,5.58099189 L10.2342818,8.6828693 C10.1756687,8.74281678 10.1489246,8.8292296 10.1627766,8.91390989 L10.8448382,13.2634506 Z" id="Shape"></path>
                                </g>
                            </g>
                        </g>
                    </g>
                </g>
            </g>
        </g>
    </g>
</svg>