<?xml version="1.0" encoding="UTF-8"?>
<svg width="20px" height="14px" viewBox="0 0 20 14" version="1.1" xmlns="http://www.w3.org/2000/svg" xmlns:xlink="http://www.w3.org/1999/xlink">
    <!-- Generator: Sketch 49.3 (51167) - http://www.bohemiancoding.com/sketch -->
    <title>study-icn</title>
    <desc>Created with Sketch.</desc>
    <defs></defs>
    <g id="Page-1" stroke="none" stroke-width="1" fill="none" fill-rule="evenodd">
        <g id="Desktop" transform="translate(-224.000000, -174.000000)">
            <g id="cards" transform="translate(87.000000, 62.000000)">
                <g id="card_1">
                    <g id="study-icn" transform="translate(137.000000, 109.000000)">
                        <rect id="base" x="0" y="0" width="20" height="20"></rect>
                        <g id="Group" transform="translate(1.000000, 4.000000)" fill="#636F89" fill-rule="nonzero" stroke="#636F89" stroke-width="0.1">
                            <path d="M8.86230379,0.0295168458 L0.241944747,3.95237485 C0.100264355,4.02003249 0,4.19782995 0,4.38141938 C0,4.56503189 0.100264355,4.74282934 0.241944747,4.81048698 L1.33745828,5.30806603 L1.33745828,7.79590357 C1.22081524,7.92261166 1.14589474,8.10380123 1.14589474,8.30790487 C1.14589474,8.69024439 1.40320281,9.0001727 1.72058528,9.0001727 C2.03796774,9.0001727 2.29527589,8.69024439 2.29527589,8.30790487 C2.29527589,8.10380123 2.22035539,7.92261166 2.10371235,7.79590357 L2.10371235,5.65421149 L3.25309357,6.18061195 L3.25309357,9.23092865 C3.25309357,9.70187846 3.50032547,10.0509661 3.81581146,10.3558639 C4.13129745,10.6607617 4.55607043,10.9303539 5.06697038,11.1707093 C6.08867451,11.6514431 7.46636115,12 8.99999966,12 C10.5336382,12 11.9113248,11.6514431 12.9330289,11.1707093 C13.4439289,10.9303539 13.8687019,10.6607617 14.1841879,10.3558639 C14.4996739,10.0509661 14.7469058,9.70187846 14.7469058,9.23092865 L14.7469058,6.18061195 L17.7580547,4.81048698 C17.8997351,4.74282934 18,4.56503189 18,4.38141938 C18,4.19782995 17.8997351,4.02003249 17.7580547,3.95237485 L9.13769553,0.0295168458 C9.01971155,-0.0236424014 8.92105633,0.00681046074 8.86230379,0.0295168458 Z M8.99999966,0.952540629 L16.5428139,4.38504225 L8.99999966,7.8103489 L1.45718541,4.38504225 L8.99999966,0.952540629 Z M4.01934771,6.52674587 L8.86230379,8.73337268 C8.94992496,8.7740088 9.05007437,8.7740088 9.13769553,8.73337268 L13.9806516,6.52674587 L13.9806516,9.23092865 C13.9806516,9.24292796 13.9312091,9.41641028 13.705279,9.63475155 C13.479349,9.85309283 13.1162786,10.0968173 12.6576755,10.3125971 C11.7403927,10.7441569 10.4378947,11.0769762 8.99999966,11.0769762 C7.5621046,11.0769762 6.25960665,10.7441569 5.34232381,10.3125971 C4.8837207,10.0968173 4.52065033,9.85309283 4.2947203,9.63475155 C4.06879026,9.41641028 4.01934771,9.24297411 4.01934771,9.23092865 L4.01934771,6.52674587 Z" id="Shape"></path>
                        </g>
                    </g>
                </g>
            </g>
        </g>
    </g>
</svg>