<?xml version="1.0" encoding="UTF-8"?>
<svg width="16px" height="14px" viewBox="0 0 16 14" version="1.1" xmlns="http://www.w3.org/2000/svg" xmlns:xlink="http://www.w3.org/1999/xlink">
    <!-- Generator: Sketch 49.3 (51167) - http://www.bohemiancoding.com/sketch -->
    <title>work-icn</title>
    <desc>Created with Sketch.</desc>
    <defs></defs>
    <g id="Page-1" stroke="none" stroke-width="1" fill="none" fill-rule="evenodd">
        <g id="Desktop" transform="translate(-226.000000, -146.000000)">
            <g id="cards" transform="translate(87.000000, 62.000000)">
                <g id="card_1">
                    <g id="work-icn" transform="translate(137.000000, 81.000000)">
                        <rect id="base" x="0" y="0" width="20" height="20"></rect>
                        <path d="M3,14.9655172 C3,15.5448276 3.45294118,16 4.02941176,16 L15.9705882,16 C16.5470588,16 17,15.5448276 17,14.9655172 L17,7.10344828 C17,6.52413793 16.5470588,6.06896552 15.9705882,6.06896552 L12.7794118,6.06896552 L12.7794118,4.62068966 C12.7794118,4.35172414 12.3882353,4 11.9558824,4 L8.04411765,4 C7.61176471,4 7.22058824,4.35172414 7.22058824,4.62068966 L7.22058824,6.06896552 L4.02941176,6.06896552 C3.45294118,6.06896552 3,6.52413793 3,7.10344828 L3,14.9655172 Z M15.9705882,15.5862069 L4.02941176,15.5862069 C3.67941176,15.5862069 3.41176471,15.3172414 3.41176471,14.9655172 L3.41176471,10.2689655 L8.04411765,10.2689655 L8.04411765,11.6551724 C8.04411765,12.1103448 8.41470588,12.4827586 8.86764706,12.4827586 L11.1323529,12.4827586 C11.5852941,12.4827586 11.9558824,12.1103448 11.9558824,11.6551724 L11.9558824,10.2689655 L16.5882353,10.2689655 L16.5882353,14.9655172 C16.5882353,15.3172414 16.3205882,15.5862069 15.9705882,15.5862069 Z M8.45588235,10.2689655 L11.5441176,10.2689655 L11.5441176,11.6551724 C11.5441176,11.8827586 11.3588235,12.0689655 11.1323529,12.0689655 L8.86764706,12.0689655 C8.64117647,12.0689655 8.45588235,11.8827586 8.45588235,11.6551724 L8.45588235,10.2689655 Z M7.63235294,4.64137931 C7.65294118,4.57931034 7.83823529,4.4137931 8.04411765,4.4137931 L11.9558824,4.4137931 C12.1617647,4.4137931 12.3470588,4.57931034 12.3676471,4.64137931 L12.3676471,6.06896552 L7.63235294,6.06896552 L7.63235294,4.64137931 Z M4.02941176,6.48275862 L15.9705882,6.48275862 C16.3205882,6.48275862 16.5882353,6.75172414 16.5882353,7.10344828 L16.5882353,9.85517241 L3.41176471,9.85517241 L3.41176471,7.10344828 C3.41176471,6.75172414 3.67941176,6.48275862 4.02941176,6.48275862 Z" id="Shape" stroke="#636F89" stroke-width="0.6" fill="#636F89" fill-rule="nonzero"></path>
                    </g>
                </g>
            </g>
        </g>
    </g>
</svg>